<svg xmlns="http://www.w3.org/2000/svg" aria-hidden="true" style="position:absolute;width:0;height:0;overflow:hidden"><defs><symbol id="icon-logo-bookshelf" viewBox="0 0 125 32"><path fill="#f6f6f6" d="m0 2.286 14.008 13.862 13.421 13.567V2.286H0z" style="fill:var(--color1, #f6f6f6)"/><path fill="#f6f6f6" d="m3.821 5.91 10.237 10.139 9.649 9.845H3.821V5.91z" style="fill:var(--color1, #f6f6f6)"/><path fill="#4f2ee8" d="M23.771 25.959 13.533 15.82 3.885 5.975h19.886v19.984z" style="fill:var(--color2, #4f2ee8)"/><path fill="#4f2ee8" d="m7.935 10.024 11.657 11.658H7.935V10.025z" style="fill:var(--color2, #4f2ee8)"/><path fill="#f6f6f6" d="m7.935 10.024 11.657 11.658V10.025H7.935z" style="fill:var(--color1, #f6f6f6)"/><path d="M47.659 12.266c0-2.366-1.749-3.703-4.773-3.703h-6.315v14.709h6.665c3.045 0 4.999-1.461 4.999-4.299 0-2.201-1.317-3.333-2.859-3.6v-.041c1.214-.411 2.283-1.255 2.283-3.065zm-8.64 2.387v-4.011h3.929c1.461 0 2.263.72 2.263 2.016s-.658 1.995-2.407 1.995h-3.785zm0 1.83h4.299c1.543 0 2.469.843 2.469 2.345 0 1.378-.638 2.366-2.736 2.366h-4.032v-4.711zm15.498 7.098c-3.291 0-5.287-2.283-5.287-5.554s1.995-5.554 5.287-5.554c3.291 0 5.287 2.283 5.287 5.554s-1.995 5.554-5.287 5.554zm0-1.77c2.057 0 3.127-1.625 3.127-3.785 0-2.181-1.07-3.785-3.127-3.785s-3.127 1.605-3.127 3.785c0 2.16 1.07 3.785 3.127 3.785zm11.51 1.77c-3.291 0-5.287-2.283-5.287-5.554s1.995-5.554 5.287-5.554c3.291 0 5.287 2.283 5.287 5.554s-1.995 5.554-5.287 5.554zm0-1.77c2.057 0 3.127-1.625 3.127-3.785 0-2.181-1.07-3.785-3.127-3.785S62.9 15.846 62.9 18.026c0 2.16 1.07 3.785 3.127 3.785zm6.78-13.248v14.709h2.16v-3.806l1.461-1.378 3.312 5.184h2.592l-4.423-6.603L81.9 12.76h-2.654l-4.279 4.217V8.563h-2.16zm14.731 8.352c-1.522-.35-2.695-.432-2.695-1.502 0-.741.699-1.234 1.995-1.234 1.687 0 2.098.843 2.242 1.666h2.098c-.144-1.831-1.502-3.374-4.361-3.374-2.633 0-4.155 1.378-4.155 3.106 0 2.386 2.263 2.715 3.929 3.106 1.543.37 2.798.473 2.798 1.79 0 .658-.638 1.399-2.139 1.399-2.222 0-2.715-.967-2.818-2.098h-2.098c.103 2.222 1.563 3.806 4.958 3.806 2.551 0 4.279-1.255 4.279-3.271 0-2.51-2.098-2.942-4.032-3.394zm11.095-4.443c-1.769 0-2.859.823-3.415 1.646h-.041V8.564h-2.16v14.709h2.16v-6.398c0-1.563 1.131-2.571 2.715-2.571 1.502 0 2.098.905 2.098 2.325v6.645h2.181v-7.262c0-2.407-1.543-3.538-3.538-3.538zm10.162 9.339c-1.913 0-3.045-1.461-3.045-3.23h8.064c0-3.744-1.666-6.11-5.061-6.11-3.168 0-5.163 2.139-5.163 5.554 0 3.291 1.995 5.554 5.266 5.554 2.695 0 4.258-1.522 4.793-3.518h-2.16c-.185.638-.905 1.749-2.695 1.749zm-.041-7.632c1.749 0 2.901 1.173 2.901 2.798h-5.904c0-1.625 1.255-2.798 3.003-2.798zm6.583-5.616v14.709h2.181V8.563h-2.181zm9.236 1.77V8.564a7.32 7.32 0 0 0-1.438-.144h-.002c-1.728 0-2.674.782-2.674 3.003v1.337h-1.502v1.769h1.502v8.743h2.181v-8.743h1.934V12.76h-1.934v-1.152c0-1.193.535-1.337 1.934-1.275z" style="fill:var(--color3, #000)"/></symbol><symbol id="icon-support-ukraine-9" viewBox="0 0 318 32"><path fill="#d0d0d0" d="M0 0h317.867v32H0V0z" style="fill:var(--color4, #d0d0d0)"/><path d="M0 0h317.867v32H0V0z" style="fill:var(--color3, #000)"/></symbol><symbol id="icon-support-ukraine-8" viewBox="0 0 66 32"><path fill="#d0d0d0" d="M0 0h66.462v32H0V0z" style="fill:var(--color4, #d0d0d0)"/><path d="M0 0h66.462v32H0V0z" style="fill:var(--color3, #000)"/></symbol><symbol id="icon-support-ukraine-7" viewBox="0 0 91 32"><path fill="#d0d0d0" d="M0 0h90.553v32H0V0z" style="fill:var(--color4, #d0d0d0)"/><path d="M0 0h90.553v32H0V0z" style="fill:var(--color3, #000)"/></symbol><symbol id="icon-support-ukraine-6" viewBox="0 0 96 32"><path fill="#d0d0d0" d="M0 0h96v32H0V0z" style="fill:var(--color4, #d0d0d0)"/><path d="M0 0h96v32H0V0z" style="fill:var(--color3, #000)"/></symbol><symbol id="icon-support-ukraine-5" viewBox="0 0 51 32"><path fill="#d0d0d0" d="M0 0h50.939v32H0V0z" style="fill:var(--color4, #d0d0d0)"/><path d="M0 0h50.939v32H0V0z" style="fill:var(--color3, #000)"/></symbol><symbol id="icon-support-ukraine-3" viewBox="0 0 118 32"><path fill="#d0d0d0" d="M0 0h117.943v32H0V0z" style="fill:var(--color4, #d0d0d0)"/><path d="M0 0h117.943v32H0V0z" style="fill:var(--color3, #000)"/></symbol><symbol id="icon-support-ukraine-2" viewBox="0 0 64 32"><path fill="#d0d0d0" d="M0 0h64v32H0V0z" style="fill:var(--color4, #d0d0d0)"/><path d="M0 0h64v32H0V0z" style="fill:var(--color3, #000)"/></symbol><symbol id="icon-support-ukraine-1" viewBox="0 0 145 32"><path d="M0 0h144.485v32H0V0z"/></symbol><symbol id="icon-support-ukraine-4" viewBox="0 0 96 32"><path fill="#d0d0d0" d="M0 0h96v32H0V0z" style="fill:var(--color4, #d0d0d0)"/><path d="M0 0h96v32H0V0z" style="fill:var(--color3, #000)"/></symbol><symbol id="icon-shopping-list-logo-book" viewBox="0 0 33 32"><path fill="#d0d0d0" d="M0 0h33.185v32H0V0z" style="fill:var(--color4, #d0d0d0)"/><path fill="#f6f6f6" d="M-1616.593-433.778H90.074V759.703h-1706.667V-433.778z" style="fill:var(--color1, #f6f6f6)"/><path fill="#fff" d="M-1099.852-192H42.667c10.473 0 18.963 8.49 18.963 18.963V41.482c0 10.473-8.49 18.963-18.963 18.963h-1142.519c-10.473 0-18.963-8.49-18.963-18.963v-214.519c0-10.473 8.49-18.963 18.963-18.963z" style="fill:var(--color5, #fff)"/><path fill="none" stroke="#4f2ee8" stroke-width="2.37" d="M-1099.852-190.815H42.667c9.818 0 17.778 7.959 17.778 17.778V41.482c0 9.818-7.959 17.778-17.778 17.778h-1142.519c-9.818 0-17.778-7.959-17.778-17.778v-214.519c0-9.818 7.959-17.778 17.778-17.778z" style="stroke:var(--color2, #4f2ee8)"/><path d="M0 0h33.185v32H0V0z" style="fill:var(--color3, #000)"/></symbol><symbol id="icon-amazon" viewBox="0 0 102 32"><path fill="#d0d0d0" d="M0 0h102.4v32H0V0z" style="fill:var(--color4, #d0d0d0)"/><path fill="#f6f6f6" d="M-2773.333-793.6h3072v2148.267h-3072V-793.6z" style="fill:var(--color1, #f6f6f6)"/><path fill="#fff" d="M-1843.2-358.4H213.333c18.851 0 34.133 15.282 34.133 34.133V61.866c0 18.851-15.282 34.133-34.133 34.133H-1843.2c-18.851 0-34.133-15.282-34.133-34.133v-386.133c0-18.851 15.282-34.133 34.133-34.133z" style="fill:var(--color5, #fff)"/><path fill="none" stroke="#4f2ee8" stroke-width="4.267" d="M-1843.2-356.267H213.333c17.673 0 32 14.327 32 32V61.866c0 17.673-14.327 32-32 32H-1843.2c-17.673 0-32-14.327-32-32v-386.133c0-17.673 14.327-32 32-32z" style="stroke:var(--color2, #4f2ee8)"/><path d="M0 0h102.4v32H0V0z" style="fill:var(--color3, #000)"/></symbol></defs></svg>