<svg xmlns="http://www.w3.org/2000/svg" aria-hidden="true" style="position:absolute;width:0;height:0;overflow:hidden"><defs><symbol id="icon-logo" viewBox="0 0 32 32">
<path fill="#f6f6f6" style="fill: var(--color1, #f6f6f6)" d="M0 0l16.343 16.171 15.657 15.829v-32h-32z"></path>
<path fill="#f6f6f6" style="fill: var(--color1, #f6f6f6)" d="M4.457 4.229l11.943 11.829 11.257 11.486h-23.2v-23.314z"></path>
<path fill="#4f2ee8" style="fill: var(--color2, #4f2ee8)" d="M27.733 27.618l-11.943-11.829-11.257-11.486h23.2v23.314z"></path>
<path fill="#4f2ee8" style="fill: var(--color2, #4f2ee8)" d="M9.257 9.029l13.6 13.6h-13.6v-13.6z"></path>
<path fill="#f6f6f6" style="fill: var(--color1, #f6f6f6)" d="M9.257 9.029l13.6 13.6v-13.6h-13.6z"></path>
</symbol> <symbol id="icon-support-ukraine-9" viewBox="0 0 318 32"><path fill="#d0d0d0" d="M0 0h317.867v32H0V0z" style="fill:var(--color4, #d0d0d0)"/><path d="M0 0h317.867v32H0V0z" style="fill:var(--color3, #000)"/></symbol><symbol id="icon-support-ukraine-8" viewBox="0 0 66 32"><path fill="#d0d0d0" d="M0 0h66.462v32H0V0z" style="fill:var(--color4, #d0d0d0)"/><path d="M0 0h66.462v32H0V0z" style="fill:var(--color3, #000)"/></symbol><symbol id="icon-support-ukraine-7" viewBox="0 0 91 32"><path fill="#d0d0d0" d="M0 0h90.553v32H0V0z" style="fill:var(--color4, #d0d0d0)"/><path d="M0 0h90.553v32H0V0z" style="fill:var(--color3, #000)"/></symbol><symbol id="icon-support-ukraine-6" viewBox="0 0 96 32"><path fill="#d0d0d0" d="M0 0h96v32H0V0z" style="fill:var(--color4, #d0d0d0)"/><path d="M0 0h96v32H0V0z" style="fill:var(--color3, #000)"/></symbol><symbol id="icon-support-ukraine-5" viewBox="0 0 51 32"><path fill="#d0d0d0" d="M0 0h50.939v32H0V0z" style="fill:var(--color4, #d0d0d0)"/><path d="M0 0h50.939v32H0V0z" style="fill:var(--color3, #000)"/></symbol><symbol id="icon-support-ukraine-3" viewBox="0 0 118 32"><path fill="#d0d0d0" d="M0 0h117.943v32H0V0z" style="fill:var(--color4, #d0d0d0)"/><path d="M0 0h117.943v32H0V0z" style="fill:var(--color3, #000)"/></symbol><symbol id="icon-support-ukraine-2" viewBox="0 0 64 32"><path fill="#d0d0d0" d="M0 0h64v32H0V0z" style="fill:var(--color4, #d0d0d0)"/><path d="M0 0h64v32H0V0z" style="fill:var(--color3, #000)"/></symbol><symbol id="icon-support-ukraine-1" viewBox="0 0 145 32"><path d="M0 0h144.485v32H0V0z"/></symbol><symbol id="icon-support-ukraine-4" viewBox="0 0 96 32"><path fill="#d0d0d0" d="M0 0h96v32H0V0z" style="fill:var(--color4, #d0d0d0)"/><path d="M0 0h96v32H0V0z" style="fill:var(--color3, #000)"/></symbol><symbol id="icon-shopping-list-logo-book" viewBox="0 0 33 32"><path fill="#d0d0d0" d="M0 0h33.185v32H0V0z" style="fill:var(--color4, #d0d0d0)"/><path fill="#f6f6f6" d="M-1616.593-433.778H90.074V759.703h-1706.667V-433.778z" style="fill:var(--color1, #f6f6f6)"/><path fill="#fff" d="M-1099.852-192H42.667c10.473 0 18.963 8.49 18.963 18.963V41.482c0 10.473-8.49 18.963-18.963 18.963h-1142.519c-10.473 0-18.963-8.49-18.963-18.963v-214.519c0-10.473 8.49-18.963 18.963-18.963z" style="fill:var(--color5, #fff)"/><path fill="none" stroke="#4f2ee8" stroke-width="2.37" d="M-1099.852-190.815H42.667c9.818 0 17.778 7.959 17.778 17.778V41.482c0 9.818-7.959 17.778-17.778 17.778h-1142.519c-9.818 0-17.778-7.959-17.778-17.778v-214.519c0-9.818 7.959-17.778 17.778-17.778z" style="stroke:var(--color2, #4f2ee8)"/><path d="M0 0h33.185v32H0V0z" style="fill:var(--color3, #000)"/></symbol><symbol id="icon-amazon" viewBox="0 0 102 32"><path fill="#d0d0d0" d="M0 0h102.4v32H0V0z" style="fill:var(--color4, #d0d0d0)"/><path fill="#f6f6f6" d="M-2773.333-793.6h3072v2148.267h-3072V-793.6z" style="fill:var(--color1, #f6f6f6)"/><path fill="#fff" d="M-1843.2-358.4H213.333c18.851 0 34.133 15.282 34.133 34.133V61.866c0 18.851-15.282 34.133-34.133 34.133H-1843.2c-18.851 0-34.133-15.282-34.133-34.133v-386.133c0-18.851 15.282-34.133 34.133-34.133z" style="fill:var(--color5, #fff)"/><path fill="none" stroke="#4f2ee8" stroke-width="4.267" d="M-1843.2-356.267H213.333c17.673 0 32 14.327 32 32V61.866c0 17.673-14.327 32-32 32H-1843.2c-17.673 0-32-14.327-32-32v-386.133c0-17.673 14.327-32 32-32z" style="stroke:var(--color2, #4f2ee8)"/><path d="M0 0h102.4v32H0V0z" style="fill:var(--color3, #000)"/></symbol></defs></svg>